<mxfile host="app.diagrams.net" modified="2021-11-01T14:24:40.533Z" agent="5.0 (Windows NT 10.0; Win64; x64) AppleWebKit/537.36 (KHTML, like Gecko) Chrome/95.0.4638.54 Safari/537.36" etag="s4f88pO7oxXZEJPv39O6" version="15.5.2" type="github">
  <diagram id="EO8f42wRr5wSpzD8UFzi" name="Page-1">
    <mxGraphModel dx="1038" dy="624" grid="1" gridSize="10" guides="1" tooltips="1" connect="1" arrows="1" fold="1" page="1" pageScale="1" pageWidth="827" pageHeight="1169" math="0" shadow="0">
      <root>
        <mxCell id="0" />
        <mxCell id="1" parent="0" />
        <mxCell id="cMTooNmGUE9pR-y-Qlk8-33" style="edgeStyle=orthogonalEdgeStyle;rounded=0;orthogonalLoop=1;jettySize=auto;html=1;entryX=0.5;entryY=0;entryDx=0;entryDy=0;fontFamily=Times New Roman;fontSize=12;" edge="1" parent="1" source="cMTooNmGUE9pR-y-Qlk8-1" target="cMTooNmGUE9pR-y-Qlk8-2">
          <mxGeometry relative="1" as="geometry" />
        </mxCell>
        <mxCell id="cMTooNmGUE9pR-y-Qlk8-1" value="&lt;font face=&quot;Times New Roman&quot;&gt;Mulai&lt;/font&gt;" style="ellipse;whiteSpace=wrap;html=1;" vertex="1" parent="1">
          <mxGeometry x="349" y="20" width="130" height="30" as="geometry" />
        </mxCell>
        <mxCell id="cMTooNmGUE9pR-y-Qlk8-34" style="edgeStyle=orthogonalEdgeStyle;rounded=0;orthogonalLoop=1;jettySize=auto;html=1;entryX=0.5;entryY=0;entryDx=0;entryDy=0;fontFamily=Times New Roman;fontSize=12;" edge="1" parent="1" source="cMTooNmGUE9pR-y-Qlk8-2" target="cMTooNmGUE9pR-y-Qlk8-5">
          <mxGeometry relative="1" as="geometry" />
        </mxCell>
        <mxCell id="cMTooNmGUE9pR-y-Qlk8-2" value="&lt;font face=&quot;Times New Roman&quot;&gt;Identifikasi Masalah&lt;/font&gt;" style="rounded=0;whiteSpace=wrap;html=1;" vertex="1" parent="1">
          <mxGeometry x="324" y="80" width="180" height="30" as="geometry" />
        </mxCell>
        <mxCell id="cMTooNmGUE9pR-y-Qlk8-36" style="edgeStyle=orthogonalEdgeStyle;rounded=0;orthogonalLoop=1;jettySize=auto;html=1;entryX=0.5;entryY=0;entryDx=0;entryDy=0;fontFamily=Times New Roman;fontSize=12;" edge="1" parent="1" source="cMTooNmGUE9pR-y-Qlk8-4" target="cMTooNmGUE9pR-y-Qlk8-12">
          <mxGeometry relative="1" as="geometry">
            <Array as="points">
              <mxPoint x="414" y="250" />
              <mxPoint x="84" y="250" />
            </Array>
          </mxGeometry>
        </mxCell>
        <mxCell id="cMTooNmGUE9pR-y-Qlk8-37" style="rounded=0;orthogonalLoop=1;jettySize=auto;html=1;entryX=0.5;entryY=0;entryDx=0;entryDy=0;fontFamily=Times New Roman;fontSize=12;" edge="1" parent="1">
          <mxGeometry relative="1" as="geometry">
            <mxPoint x="415" y="230" as="sourcePoint" />
            <mxPoint x="414" y="280" as="targetPoint" />
          </mxGeometry>
        </mxCell>
        <mxCell id="cMTooNmGUE9pR-y-Qlk8-42" style="edgeStyle=orthogonalEdgeStyle;rounded=0;orthogonalLoop=1;jettySize=auto;html=1;exitX=0.5;exitY=1;exitDx=0;exitDy=0;entryX=0.5;entryY=0;entryDx=0;entryDy=0;fontFamily=Times New Roman;fontSize=12;" edge="1" parent="1" source="cMTooNmGUE9pR-y-Qlk8-4" target="cMTooNmGUE9pR-y-Qlk8-16">
          <mxGeometry relative="1" as="geometry">
            <Array as="points">
              <mxPoint x="414" y="250" />
              <mxPoint x="578" y="250" />
            </Array>
          </mxGeometry>
        </mxCell>
        <mxCell id="cMTooNmGUE9pR-y-Qlk8-47" style="edgeStyle=orthogonalEdgeStyle;rounded=0;orthogonalLoop=1;jettySize=auto;html=1;exitX=0.5;exitY=1;exitDx=0;exitDy=0;entryX=0.5;entryY=0;entryDx=0;entryDy=0;fontFamily=Times New Roman;fontSize=12;" edge="1" parent="1" source="cMTooNmGUE9pR-y-Qlk8-4" target="cMTooNmGUE9pR-y-Qlk8-15">
          <mxGeometry relative="1" as="geometry">
            <Array as="points">
              <mxPoint x="414" y="250" />
              <mxPoint x="744" y="250" />
            </Array>
          </mxGeometry>
        </mxCell>
        <mxCell id="cMTooNmGUE9pR-y-Qlk8-48" style="edgeStyle=orthogonalEdgeStyle;rounded=0;orthogonalLoop=1;jettySize=auto;html=1;exitX=0.5;exitY=1;exitDx=0;exitDy=0;entryX=0.5;entryY=0;entryDx=0;entryDy=0;fontFamily=Times New Roman;fontSize=12;" edge="1" parent="1" source="cMTooNmGUE9pR-y-Qlk8-4" target="cMTooNmGUE9pR-y-Qlk8-13">
          <mxGeometry relative="1" as="geometry">
            <Array as="points">
              <mxPoint x="414" y="250" />
              <mxPoint x="248" y="250" />
            </Array>
          </mxGeometry>
        </mxCell>
        <mxCell id="cMTooNmGUE9pR-y-Qlk8-4" value="&lt;font face=&quot;Times New Roman&quot;&gt;Pengumpulan Data&lt;/font&gt;" style="rounded=0;whiteSpace=wrap;html=1;" vertex="1" parent="1">
          <mxGeometry x="324" y="200" width="180" height="30" as="geometry" />
        </mxCell>
        <mxCell id="cMTooNmGUE9pR-y-Qlk8-35" style="edgeStyle=orthogonalEdgeStyle;rounded=0;orthogonalLoop=1;jettySize=auto;html=1;entryX=0.5;entryY=0;entryDx=0;entryDy=0;fontFamily=Times New Roman;fontSize=12;" edge="1" parent="1" source="cMTooNmGUE9pR-y-Qlk8-5" target="cMTooNmGUE9pR-y-Qlk8-4">
          <mxGeometry relative="1" as="geometry" />
        </mxCell>
        <mxCell id="cMTooNmGUE9pR-y-Qlk8-5" value="&lt;font face=&quot;Times New Roman&quot;&gt;Studi Literatur&lt;/font&gt;" style="rounded=0;whiteSpace=wrap;html=1;" vertex="1" parent="1">
          <mxGeometry x="324" y="140" width="180" height="30" as="geometry" />
        </mxCell>
        <mxCell id="cMTooNmGUE9pR-y-Qlk8-59" style="edgeStyle=orthogonalEdgeStyle;rounded=0;orthogonalLoop=1;jettySize=auto;html=1;exitX=0.5;exitY=1;exitDx=0;exitDy=0;fontFamily=Times New Roman;fontSize=12;" edge="1" parent="1" source="cMTooNmGUE9pR-y-Qlk8-6" target="cMTooNmGUE9pR-y-Qlk8-26">
          <mxGeometry relative="1" as="geometry" />
        </mxCell>
        <mxCell id="cMTooNmGUE9pR-y-Qlk8-6" value="Peta Kelerengan" style="shape=parallelogram;perimeter=parallelogramPerimeter;whiteSpace=wrap;html=1;fixedSize=1;fontFamily=Times New Roman;" vertex="1" parent="1">
          <mxGeometry x="9" y="440" width="150" height="40" as="geometry" />
        </mxCell>
        <mxCell id="cMTooNmGUE9pR-y-Qlk8-64" style="edgeStyle=orthogonalEdgeStyle;rounded=0;orthogonalLoop=1;jettySize=auto;html=1;exitX=0.5;exitY=1;exitDx=0;exitDy=0;entryX=0.5;entryY=0;entryDx=0;entryDy=0;fontFamily=Times New Roman;fontSize=12;" edge="1" parent="1" source="cMTooNmGUE9pR-y-Qlk8-7" target="cMTooNmGUE9pR-y-Qlk8-26">
          <mxGeometry relative="1" as="geometry" />
        </mxCell>
        <mxCell id="cMTooNmGUE9pR-y-Qlk8-7" value="Peta Penggunaan Lahan" style="shape=parallelogram;perimeter=parallelogramPerimeter;whiteSpace=wrap;html=1;fixedSize=1;fontFamily=Times New Roman;" vertex="1" parent="1">
          <mxGeometry x="173" y="440" width="150" height="40" as="geometry" />
        </mxCell>
        <mxCell id="cMTooNmGUE9pR-y-Qlk8-65" style="edgeStyle=orthogonalEdgeStyle;rounded=0;orthogonalLoop=1;jettySize=auto;html=1;exitX=0.5;exitY=1;exitDx=0;exitDy=0;entryX=0.5;entryY=0;entryDx=0;entryDy=0;fontFamily=Times New Roman;fontSize=12;" edge="1" parent="1">
          <mxGeometry relative="1" as="geometry">
            <mxPoint x="413" y="480" as="sourcePoint" />
            <mxPoint x="414" y="520" as="targetPoint" />
            <Array as="points">
              <mxPoint x="414" y="480" />
            </Array>
          </mxGeometry>
        </mxCell>
        <mxCell id="cMTooNmGUE9pR-y-Qlk8-8" value="Peta Jenis Tanah" style="shape=parallelogram;perimeter=parallelogramPerimeter;whiteSpace=wrap;html=1;fixedSize=1;fontFamily=Times New Roman;" vertex="1" parent="1">
          <mxGeometry x="338" y="440" width="150" height="40" as="geometry" />
        </mxCell>
        <mxCell id="cMTooNmGUE9pR-y-Qlk8-61" style="edgeStyle=orthogonalEdgeStyle;rounded=0;orthogonalLoop=1;jettySize=auto;html=1;exitX=0.5;exitY=1;exitDx=0;exitDy=0;entryX=0.5;entryY=0;entryDx=0;entryDy=0;fontFamily=Times New Roman;fontSize=12;" edge="1" parent="1" source="cMTooNmGUE9pR-y-Qlk8-9" target="cMTooNmGUE9pR-y-Qlk8-26">
          <mxGeometry relative="1" as="geometry" />
        </mxCell>
        <mxCell id="cMTooNmGUE9pR-y-Qlk8-9" value="Peta Curah Hujan" style="shape=parallelogram;perimeter=parallelogramPerimeter;whiteSpace=wrap;html=1;fixedSize=1;fontFamily=Times New Roman;" vertex="1" parent="1">
          <mxGeometry x="669" y="440" width="150" height="40" as="geometry" />
        </mxCell>
        <mxCell id="cMTooNmGUE9pR-y-Qlk8-62" style="edgeStyle=orthogonalEdgeStyle;rounded=0;orthogonalLoop=1;jettySize=auto;html=1;exitX=0.5;exitY=1;exitDx=0;exitDy=0;entryX=0.5;entryY=0;entryDx=0;entryDy=0;fontFamily=Times New Roman;fontSize=12;" edge="1" parent="1" source="cMTooNmGUE9pR-y-Qlk8-11" target="cMTooNmGUE9pR-y-Qlk8-26">
          <mxGeometry relative="1" as="geometry" />
        </mxCell>
        <mxCell id="cMTooNmGUE9pR-y-Qlk8-11" value="Peta Jenis Batuan" style="shape=parallelogram;perimeter=parallelogramPerimeter;whiteSpace=wrap;html=1;fixedSize=1;fontFamily=Times New Roman;" vertex="1" parent="1">
          <mxGeometry x="503" y="440" width="150" height="40" as="geometry" />
        </mxCell>
        <mxCell id="cMTooNmGUE9pR-y-Qlk8-49" style="edgeStyle=orthogonalEdgeStyle;rounded=0;orthogonalLoop=1;jettySize=auto;html=1;exitX=0.5;exitY=1;exitDx=0;exitDy=0;fontFamily=Times New Roman;fontSize=12;" edge="1" parent="1" source="cMTooNmGUE9pR-y-Qlk8-12" target="cMTooNmGUE9pR-y-Qlk8-19">
          <mxGeometry relative="1" as="geometry" />
        </mxCell>
        <mxCell id="cMTooNmGUE9pR-y-Qlk8-12" value="&lt;font style=&quot;font-size: 12px&quot;&gt;Data Kontur Kota&lt;br&gt;&amp;nbsp;Semarang&lt;/font&gt;" style="shape=parallelogram;perimeter=parallelogramPerimeter;whiteSpace=wrap;html=1;fixedSize=1;fontFamily=Times New Roman;shadow=0;" vertex="1" parent="1">
          <mxGeometry x="9" y="280" width="150" height="40" as="geometry" />
        </mxCell>
        <mxCell id="cMTooNmGUE9pR-y-Qlk8-51" style="edgeStyle=orthogonalEdgeStyle;rounded=0;orthogonalLoop=1;jettySize=auto;html=1;exitX=0.5;exitY=1;exitDx=0;exitDy=0;entryX=0.5;entryY=0;entryDx=0;entryDy=0;fontFamily=Times New Roman;fontSize=12;" edge="1" parent="1" source="cMTooNmGUE9pR-y-Qlk8-13" target="cMTooNmGUE9pR-y-Qlk8-22">
          <mxGeometry relative="1" as="geometry" />
        </mxCell>
        <mxCell id="cMTooNmGUE9pR-y-Qlk8-13" value="Data Guna Lahan Kota Semarang Tahun 2020" style="shape=parallelogram;perimeter=parallelogramPerimeter;whiteSpace=wrap;html=1;fixedSize=1;fontFamily=Times New Roman;" vertex="1" parent="1">
          <mxGeometry x="173" y="280" width="150" height="40" as="geometry" />
        </mxCell>
        <mxCell id="cMTooNmGUE9pR-y-Qlk8-52" style="edgeStyle=orthogonalEdgeStyle;rounded=0;orthogonalLoop=1;jettySize=auto;html=1;exitX=0.5;exitY=1;exitDx=0;exitDy=0;entryX=0.5;entryY=0;entryDx=0;entryDy=0;fontFamily=Times New Roman;fontSize=12;" edge="1" parent="1" source="cMTooNmGUE9pR-y-Qlk8-14" target="cMTooNmGUE9pR-y-Qlk8-23">
          <mxGeometry relative="1" as="geometry" />
        </mxCell>
        <mxCell id="cMTooNmGUE9pR-y-Qlk8-14" value="Data Jenis Tanah Kota Semarang" style="shape=parallelogram;perimeter=parallelogramPerimeter;whiteSpace=wrap;html=1;fixedSize=1;fontFamily=Times New Roman;" vertex="1" parent="1">
          <mxGeometry x="338" y="280" width="150" height="40" as="geometry" />
        </mxCell>
        <mxCell id="cMTooNmGUE9pR-y-Qlk8-54" style="edgeStyle=orthogonalEdgeStyle;rounded=0;orthogonalLoop=1;jettySize=auto;html=1;exitX=0.5;exitY=1;exitDx=0;exitDy=0;fontFamily=Times New Roman;fontSize=12;" edge="1" parent="1" source="cMTooNmGUE9pR-y-Qlk8-15" target="cMTooNmGUE9pR-y-Qlk8-25">
          <mxGeometry relative="1" as="geometry" />
        </mxCell>
        <mxCell id="cMTooNmGUE9pR-y-Qlk8-15" value="Data Curah Hujan Kota Semarang Tahun 2020" style="shape=parallelogram;perimeter=parallelogramPerimeter;whiteSpace=wrap;html=1;fixedSize=1;fontFamily=Times New Roman;" vertex="1" parent="1">
          <mxGeometry x="669" y="280" width="150" height="40" as="geometry" />
        </mxCell>
        <mxCell id="cMTooNmGUE9pR-y-Qlk8-53" style="edgeStyle=orthogonalEdgeStyle;rounded=0;orthogonalLoop=1;jettySize=auto;html=1;exitX=0.5;exitY=1;exitDx=0;exitDy=0;entryX=0.5;entryY=0;entryDx=0;entryDy=0;fontFamily=Times New Roman;fontSize=12;" edge="1" parent="1" source="cMTooNmGUE9pR-y-Qlk8-16" target="cMTooNmGUE9pR-y-Qlk8-24">
          <mxGeometry relative="1" as="geometry" />
        </mxCell>
        <mxCell id="cMTooNmGUE9pR-y-Qlk8-16" value="Data Jenis Batuan Kota Semarang" style="shape=parallelogram;perimeter=parallelogramPerimeter;whiteSpace=wrap;html=1;fixedSize=1;fontFamily=Times New Roman;" vertex="1" parent="1">
          <mxGeometry x="503" y="280" width="150" height="40" as="geometry" />
        </mxCell>
        <mxCell id="cMTooNmGUE9pR-y-Qlk8-50" style="edgeStyle=orthogonalEdgeStyle;rounded=0;orthogonalLoop=1;jettySize=auto;html=1;exitX=0.5;exitY=1;exitDx=0;exitDy=0;entryX=0.5;entryY=0;entryDx=0;entryDy=0;fontFamily=Times New Roman;fontSize=12;" edge="1" parent="1" source="cMTooNmGUE9pR-y-Qlk8-19" target="cMTooNmGUE9pR-y-Qlk8-6">
          <mxGeometry relative="1" as="geometry" />
        </mxCell>
        <mxCell id="cMTooNmGUE9pR-y-Qlk8-19" value="&lt;font face=&quot;Times New Roman&quot;&gt;&lt;i&gt;Editing Attribute&lt;/i&gt;&lt;/font&gt;" style="rounded=0;whiteSpace=wrap;html=1;" vertex="1" parent="1">
          <mxGeometry x="23.5" y="370" width="121" height="20" as="geometry" />
        </mxCell>
        <mxCell id="cMTooNmGUE9pR-y-Qlk8-58" style="edgeStyle=orthogonalEdgeStyle;rounded=0;orthogonalLoop=1;jettySize=auto;html=1;exitX=0.5;exitY=1;exitDx=0;exitDy=0;entryX=0.5;entryY=0;entryDx=0;entryDy=0;fontFamily=Times New Roman;fontSize=12;" edge="1" parent="1" source="cMTooNmGUE9pR-y-Qlk8-22" target="cMTooNmGUE9pR-y-Qlk8-7">
          <mxGeometry relative="1" as="geometry" />
        </mxCell>
        <mxCell id="cMTooNmGUE9pR-y-Qlk8-22" value="&lt;font face=&quot;Times New Roman&quot;&gt;&lt;i&gt;Editing Attribute&lt;/i&gt;&lt;/font&gt;" style="rounded=0;whiteSpace=wrap;html=1;" vertex="1" parent="1">
          <mxGeometry x="187.5" y="370" width="121" height="20" as="geometry" />
        </mxCell>
        <mxCell id="cMTooNmGUE9pR-y-Qlk8-57" style="edgeStyle=orthogonalEdgeStyle;rounded=0;orthogonalLoop=1;jettySize=auto;html=1;exitX=0.5;exitY=1;exitDx=0;exitDy=0;entryX=0.5;entryY=0;entryDx=0;entryDy=0;fontFamily=Times New Roman;fontSize=12;" edge="1" parent="1" source="cMTooNmGUE9pR-y-Qlk8-23" target="cMTooNmGUE9pR-y-Qlk8-8">
          <mxGeometry relative="1" as="geometry" />
        </mxCell>
        <mxCell id="cMTooNmGUE9pR-y-Qlk8-23" value="&lt;font face=&quot;Times New Roman&quot;&gt;&lt;i&gt;Editing Attribute&lt;/i&gt;&lt;/font&gt;" style="rounded=0;whiteSpace=wrap;html=1;" vertex="1" parent="1">
          <mxGeometry x="352.5" y="370" width="121" height="20" as="geometry" />
        </mxCell>
        <mxCell id="cMTooNmGUE9pR-y-Qlk8-56" style="edgeStyle=orthogonalEdgeStyle;rounded=0;orthogonalLoop=1;jettySize=auto;html=1;exitX=0.5;exitY=1;exitDx=0;exitDy=0;entryX=0.5;entryY=0;entryDx=0;entryDy=0;fontFamily=Times New Roman;fontSize=12;" edge="1" parent="1" source="cMTooNmGUE9pR-y-Qlk8-24" target="cMTooNmGUE9pR-y-Qlk8-11">
          <mxGeometry relative="1" as="geometry" />
        </mxCell>
        <mxCell id="cMTooNmGUE9pR-y-Qlk8-24" value="&lt;font face=&quot;Times New Roman&quot;&gt;&lt;i&gt;Editing Attribute&lt;/i&gt;&lt;/font&gt;" style="rounded=0;whiteSpace=wrap;html=1;" vertex="1" parent="1">
          <mxGeometry x="517.5" y="370" width="121" height="20" as="geometry" />
        </mxCell>
        <mxCell id="cMTooNmGUE9pR-y-Qlk8-55" style="edgeStyle=orthogonalEdgeStyle;rounded=0;orthogonalLoop=1;jettySize=auto;html=1;exitX=0.5;exitY=1;exitDx=0;exitDy=0;entryX=0.5;entryY=0;entryDx=0;entryDy=0;fontFamily=Times New Roman;fontSize=12;" edge="1" parent="1" source="cMTooNmGUE9pR-y-Qlk8-25" target="cMTooNmGUE9pR-y-Qlk8-9">
          <mxGeometry relative="1" as="geometry" />
        </mxCell>
        <mxCell id="cMTooNmGUE9pR-y-Qlk8-25" value="&lt;font face=&quot;Times New Roman&quot;&gt;&lt;i&gt;Editing Attribute&lt;/i&gt;&lt;/font&gt;" style="rounded=0;whiteSpace=wrap;html=1;" vertex="1" parent="1">
          <mxGeometry x="683.5" y="370" width="121" height="20" as="geometry" />
        </mxCell>
        <mxCell id="cMTooNmGUE9pR-y-Qlk8-66" style="edgeStyle=orthogonalEdgeStyle;rounded=0;orthogonalLoop=1;jettySize=auto;html=1;exitX=0.5;exitY=1;exitDx=0;exitDy=0;entryX=0.5;entryY=0;entryDx=0;entryDy=0;fontFamily=Times New Roman;fontSize=12;" edge="1" parent="1" source="cMTooNmGUE9pR-y-Qlk8-26" target="cMTooNmGUE9pR-y-Qlk8-27">
          <mxGeometry relative="1" as="geometry" />
        </mxCell>
        <mxCell id="cMTooNmGUE9pR-y-Qlk8-26" value="&lt;font face=&quot;Times New Roman&quot;&gt;&lt;i&gt;Intersect Overlay&lt;/i&gt;&lt;/font&gt;" style="rounded=0;whiteSpace=wrap;html=1;" vertex="1" parent="1">
          <mxGeometry x="324" y="520" width="180" height="30" as="geometry" />
        </mxCell>
        <mxCell id="cMTooNmGUE9pR-y-Qlk8-67" style="edgeStyle=orthogonalEdgeStyle;rounded=0;orthogonalLoop=1;jettySize=auto;html=1;exitX=0.5;exitY=1;exitDx=0;exitDy=0;entryX=0.5;entryY=0;entryDx=0;entryDy=0;fontFamily=Times New Roman;fontSize=12;" edge="1" parent="1" source="cMTooNmGUE9pR-y-Qlk8-27" target="cMTooNmGUE9pR-y-Qlk8-28">
          <mxGeometry relative="1" as="geometry" />
        </mxCell>
        <mxCell id="cMTooNmGUE9pR-y-Qlk8-27" value="&lt;font face=&quot;Times New Roman&quot;&gt;&lt;i&gt;Skoring&lt;/i&gt;&lt;/font&gt;" style="rounded=0;whiteSpace=wrap;html=1;" vertex="1" parent="1">
          <mxGeometry x="324" y="580" width="180" height="30" as="geometry" />
        </mxCell>
        <mxCell id="cMTooNmGUE9pR-y-Qlk8-69" style="edgeStyle=orthogonalEdgeStyle;rounded=0;orthogonalLoop=1;jettySize=auto;html=1;exitX=0.5;exitY=1;exitDx=0;exitDy=0;entryX=0.5;entryY=0;entryDx=0;entryDy=0;fontFamily=Times New Roman;fontSize=12;" edge="1" parent="1" source="cMTooNmGUE9pR-y-Qlk8-28" target="cMTooNmGUE9pR-y-Qlk8-29">
          <mxGeometry relative="1" as="geometry" />
        </mxCell>
        <mxCell id="cMTooNmGUE9pR-y-Qlk8-28" value="&lt;font face=&quot;Times New Roman&quot;&gt;Pengkasifikasian Tingkat Kerawanan &lt;i&gt;landslide&lt;/i&gt;&lt;/font&gt;" style="rounded=0;whiteSpace=wrap;html=1;" vertex="1" parent="1">
          <mxGeometry x="324" y="640" width="180" height="30" as="geometry" />
        </mxCell>
        <mxCell id="cMTooNmGUE9pR-y-Qlk8-29" value="Peta Kerawanan &lt;i&gt;landslide&lt;/i&gt;&lt;br&gt;di Kota Semarang" style="shape=document;whiteSpace=wrap;html=1;boundedLbl=1;rounded=0;fontSize=12;" vertex="1" parent="1">
          <mxGeometry x="323" y="700" width="180" height="50" as="geometry" />
        </mxCell>
        <mxCell id="cMTooNmGUE9pR-y-Qlk8-70" style="edgeStyle=none;rounded=0;orthogonalLoop=1;jettySize=auto;html=1;fontFamily=Times New Roman;fontSize=12;entryX=0.5;entryY=0;entryDx=0;entryDy=0;exitX=0.51;exitY=0.828;exitDx=0;exitDy=0;exitPerimeter=0;" edge="1" parent="1" source="cMTooNmGUE9pR-y-Qlk8-29" target="cMTooNmGUE9pR-y-Qlk8-30">
          <mxGeometry relative="1" as="geometry">
            <mxPoint x="414" y="860" as="targetPoint" />
          </mxGeometry>
        </mxCell>
        <mxCell id="cMTooNmGUE9pR-y-Qlk8-30" value="&lt;font face=&quot;Times New Roman&quot;&gt;Mulai&lt;/font&gt;" style="ellipse;whiteSpace=wrap;html=1;" vertex="1" parent="1">
          <mxGeometry x="349" y="790" width="130" height="30" as="geometry" />
        </mxCell>
      </root>
    </mxGraphModel>
  </diagram>
</mxfile>
